<svg width="160" height="67" viewBox="0 0 160 67" fill="none" xmlns="http://www.w3.org/2000/svg">
<path d="M146.24 30.3701L151.04 0.0700684H6.18977L0.259766 37.4801H38.5698L33.8898 67.0001H154.19L160 30.3701H146.24Z" fill="white"/>
<path fill-rule="evenodd" clip-rule="evenodd" d="M109.26 30.1601H108.13L108.14 30.1401C104.74 30.1401 102.78 28.2301 103.3 24.8101L103.86 21.3501H108.7L108.21 24.5301C108.09 25.3701 108.27 25.8001 108.89 25.8001C109.47 25.8001 109.75 25.3601 109.9 24.4401L110.03 23.6701C110.24 22.3701 109.99 21.7801 109.04 20.5501L107.56 18.6401C105.71 16.3001 105.12 14.5101 105.49 12.2301L105.64 11.2801C106.14 8.20009 107.81 6.59009 111.23 6.59009H112.35C116.05 6.59009 117.38 8.47009 116.91 11.3701L116.5 13.9301H111.77L112.14 11.5601C112.23 10.9401 112.08 10.5701 111.46 10.5701C110.9 10.5701 110.75 10.9001 110.66 11.5201L110.57 12.2301C110.42 13.2201 110.6 13.6501 111.37 14.7301L112.94 16.7101C115 19.3301 115.78 21.1201 115.41 23.4001L115.22 24.5801C114.63 28.2001 112.9 30.1701 109.26 30.1601ZM22.5099 11.6501L23.2799 6.9001H13.7799H13.7699L10.1299 29.8601H15.0699L16.5599 20.4201H20.0799L20.8799 15.5401H17.3499L17.9799 11.6501H22.5099ZM26.1699 6.9101H26.1599L26.1699 6.9001V6.90985L26.1699 6.90983H35.5799L34.8399 11.6598H30.3699L29.7499 15.5798H33.3599L32.5899 20.4598H28.9499L28.2399 25.0198H32.8999L32.1299 29.8598H22.5399L26.1699 6.9101ZM55.7199 20.4699H55.7099L56.3599 20.4599C57.0699 20.4599 57.2199 20.7999 57.0699 21.6399L56.0599 28.1499C55.9099 29.0799 56.0599 29.6299 56.2099 29.8699H61.1099L61.1399 29.7199C61.0099 29.3499 60.9199 28.9199 61.0799 28.0199L62.2599 20.6199C62.5399 18.7699 61.5299 17.8399 60.7799 17.4799C61.9799 17.0699 62.9699 16.0399 63.2799 13.9999L63.7699 10.9699C64.1999 8.31991 62.5899 6.92992 60.3499 6.92992H52.9499L49.3099 29.8899H54.2499L55.7299 20.4799L55.7199 20.4699ZM57.2499 10.8599H57.9299C58.5499 10.8599 58.7299 11.1999 58.6099 11.9099L58.1199 15.0299C58.0299 15.8299 57.7099 16.1499 57.1299 16.1499H56.4199L57.2599 10.8799H57.2499V10.8599ZM47.2898 6.9001L46.8198 29.8601H42.0598L42.2098 26.5001H39.9298L39.0898 29.8601H34.7098L41.1798 6.9001H47.2898ZM42.7698 15.0001L41.0498 21.9701H42.4298L42.7698 15.0001ZM46.7298 37.5099L43.0898 60.4799H48.0298L49.5098 51.0299H53.0398L53.8398 46.1599H50.3098L50.9298 42.2699H55.4698L56.2398 37.5099H46.7398H46.7298ZM135.77 21.0798L134.41 29.8698H129.45L130.84 21.1398L129.51 6.90983H134.33L134.35 14.5298L136.76 6.90983H141.32L135.77 21.0798ZM127.01 24.9898H122.95L125.81 6.90983H120.87L117.23 29.8698H126.24L127.01 24.9898ZM73.6399 24.9898H69.5699L72.4399 6.90983H67.4999L63.8599 29.8698H72.8699L73.6399 24.9898ZM94.7699 30.1601H93.6399L93.6499 30.1401C90.2499 30.1401 88.2899 28.2301 88.8099 24.8101L89.3699 21.3501H94.2099L93.7199 24.5301C93.5999 25.3701 93.7799 25.8001 94.3999 25.8001C94.9799 25.8001 95.2599 25.3601 95.4099 24.4401L95.5399 23.6701C95.7499 22.3701 95.4999 21.7801 94.5499 20.5501L93.0699 18.6401C91.2199 16.3001 90.6299 14.5101 90.9999 12.2301L91.1499 11.2801C91.6499 8.20009 93.3199 6.59009 96.7399 6.59009H97.8599C101.56 6.59009 102.89 8.47009 102.42 11.3701L102.01 13.9301H97.2799L97.6499 11.5601C97.7399 10.9401 97.5899 10.5701 96.9699 10.5701C96.4099 10.5701 96.2599 10.9001 96.1699 11.5201L96.0799 12.2301C95.9299 13.2201 96.1099 13.6501 96.8799 14.7301L98.4499 16.7101C100.51 19.3301 101.29 21.1201 100.92 23.4001L100.73 24.5801C100.14 28.2001 98.4099 30.1701 94.7699 30.1601ZM67.1198 37.4801H62.3398C59.8398 38.2101 58.7398 40.4401 58.2298 43.6801L56.5298 54.3901C55.9098 58.5001 57.8598 60.8001 61.7398 60.8001H62.6598C66.0598 60.8001 67.9698 58.5201 68.6198 54.5401L70.3398 43.6801C70.8198 40.4801 69.7398 38.2201 67.1198 37.4801ZM63.3798 54.9801C63.2898 55.5601 63.0398 56.0601 62.3698 56.0601C61.6998 56.0601 61.5098 55.5701 61.5998 54.9401L63.4498 43.1601C63.5998 42.3001 63.8198 41.8701 64.4998 41.8701C65.1798 41.8701 65.3998 42.3401 65.2698 43.1601L63.3798 54.9801ZM109.71 60.4602H105.33H105.32L111.8 37.5002H117.91L117.44 60.4602H112.68L112.83 57.1002H110.55L109.71 60.4602ZM111.68 52.5602H113.06L113.4 45.5902L111.68 52.5602ZM88.0399 11.6799L88.7699 6.92992H79.3699L75.7299 29.8699H85.3199L86.0999 25.0299H81.4299L82.1399 20.4699H85.7799L86.5499 15.5899H82.9399L83.5599 11.6799H88.0399ZM99.8199 51.7202L102.85 37.5002H107.73L101.56 60.4602H95.9399L96.6499 47.9902L93.9699 60.4602H88.2299L88.6999 37.5002H93.6899L92.7399 51.4202L95.9799 37.5002H100.59L99.8199 51.7202ZM146.12 37.5099H139.37L135.73 60.4699H143.4C146.33 60.4699 147.66 58.7499 148.22 55.0999L150.2 42.6899C150.78 39.0199 148.97 37.5099 146.13 37.5099H146.12ZM143.21 54.6299C143.02 55.7099 142.84 56.0499 142.03 56.0499H141.32L143.6 41.7699H144.35C145 41.7699 145.15 42.2399 145.03 43.0599L143.21 54.6299ZM124.18 37.5299H131.58L131.59 37.5399C133.83 37.5399 135.44 38.9299 135.01 41.5799L134.52 44.6099C134.21 46.6499 133.22 47.6899 132.02 48.0899C132.77 48.4499 133.78 49.3799 133.5 51.2299L132.32 58.6299C132.16 59.5299 132.25 59.9599 132.38 60.3299L132.35 60.4799H127.45C127.3 60.2399 127.15 59.6899 127.3 58.7599L128.31 52.2499C128.46 51.4099 128.31 51.0699 127.6 51.0699L126.95 51.0799H126.96L125.48 60.4899H120.54L124.18 37.5299ZM128.39 46.7499C128.97 46.7499 129.29 46.4399 129.38 45.6399L129.87 42.5199C129.99 41.8099 129.81 41.4699 129.19 41.4699L128.51 41.4799H128.52L127.68 46.7499H128.39ZM82.1198 37.5099H74.7198L71.0798 60.4699H76.0198L77.4998 51.0499H77.4898L78.1398 51.0399C78.8498 51.0399 78.9998 51.3799 78.8498 52.2199L77.8398 58.7299C77.6898 59.6499 77.8398 60.2099 77.9898 60.4499H82.8898L82.9098 60.2999C82.7798 59.9299 82.6898 59.4999 82.8498 58.5999L84.0298 51.1999C84.3098 49.3499 83.2898 48.4299 82.5498 48.0599C83.7498 47.6499 84.7398 46.6199 85.0498 44.5799L85.5398 41.5499C85.9698 38.8999 84.3598 37.5099 82.1198 37.5099ZM79.9198 45.6199C79.8298 46.4199 79.5098 46.7399 78.9298 46.7399H78.2198L79.0598 41.4699H79.0498L79.7298 41.4599C80.3498 41.4599 80.5298 41.7999 80.4098 42.5099L79.9198 45.6299V45.6199ZM79.3699 6.92983H79.3599L79.3699 6.90983V6.92983Z" fill="#231F20"/>
</svg>
