<svg width="250" height="75" viewBox="0 0 250 75" fill="none" xmlns="http://www.w3.org/2000/svg">
<g clip-path="url(#clip0_4468_426)">
<path d="M150.2 53.5999C150.2 55.3999 150.9 55.7999 152.6 55.7999H153.3V56.3999H144.9V55.7999H145.4C147.2 55.7999 147.8 55.2999 147.8 53.2999V40.8999C147.8 39.0999 147.3 38.4999 145.6 38.4999H144.9V37.8999C145.6 37.8999 147.4 37.7999 148.7 37.6999C149.9 37.5999 150.5 37.5999 152.5 37.5999C158 37.5999 160.5 39.8999 160.5 42.8999C160.5 45.0999 159 46.9999 156.5 47.6999C157.6 48.5999 158.5 49.3999 159.9 50.7999L162.3 53.1999C164.1 54.9999 164.9 56.0999 166.2 55.2999L168.1 56.3999C161.6 56.5999 162.5 56.1999 158.9 53.1999L156.9 51.1999C155.6 49.8999 154.5 48.9999 153.8 48.5999C153.1 48.5999 152.6 48.6999 151.8 48.6999C151.1 48.6999 150.8 48.6999 150.3 48.5999L150.2 53.5999ZM150.2 47.9999C150.9 48.0999 151.4 48.0999 152 48.0999C155.3 48.0999 157.5 46.6999 157.5 43.0999C157.5 40.2999 156.2 38.1999 151.7 38.1999C151.1 38.1999 150.7 38.1999 150.2 38.2999V47.9999Z" fill="white"/>
<path d="M111.3 56.4999H98V55.8999H99C100.4 55.8999 100.9 55.4999 100.9 53.8999V40.6999C100.9 39.0999 100.4 38.4999 98.5 38.4999H98V37.8999H106.8V38.4999H105.7C103.8 38.4999 103.2 38.6999 103.2 40.5999V54.2999C103.2 55.0999 103.5 55.3999 104.4 55.3999H108.8C110.6 55.3999 111.1 54.6999 113 52.0999H113.5L111.3 56.4999Z" fill="white"/>
<path d="M123 56.4999H115.8V55.8999C117.6 55.7999 118 55.2999 118 53.2999V40.5999C118 38.9999 117.4 38.4999 115.8 38.4999V37.8999H123V38.4999C121.1 38.4999 120.5 38.8999 120.5 40.8999V53.4999C120.5 55.2999 121 55.8999 123 55.8999V56.4999Z" fill="white"/>
<path d="M129.5 41.0999C129.5 39.3999 129.3 38.4999 127.2 38.4999H126.2V37.8999C127 37.8999 129.1 37.7999 130 37.6999C131.6 37.5999 133.9 37.5999 134.5 37.5999C137.1 37.5999 139.4 37.9999 140.5 38.7999C141.7 39.6999 142.3 40.6999 142.3 42.0999C142.3 43.7999 140.9 45.3999 138.9 45.6999V45.7999C141.7 46.5999 143.3 48.3999 143.3 50.7999C143.3 53.1999 141.7 56.4999 136.9 56.4999H126V55.8999H126.7C129.2 55.8999 129.6 55.2999 129.6 53.3999L129.5 41.0999ZM131.9 45.6999H135.1C138 45.6999 139.4 44.5999 139.4 42.1999C139.4 40.0999 138.1 38.1999 134.5 38.1999C133.8 38.1999 132.6 38.2999 131.9 38.2999V45.6999ZM131.9 52.5999C131.9 54.8999 132.8 55.6999 135.3 55.6999C139.2 55.6999 140.4 53.2999 140.4 50.8999C140.4 48.5999 138.6 46.1999 135.2 46.1999H132L131.9 52.5999Z" fill="white"/>
<path d="M170.1 48.1999L168.4 52.8999C168.2 53.4999 167.8 54.3999 167.8 54.7999C167.8 55.5999 168.6 55.8999 170.2 55.8999H170.7V56.4999H164.5L163.9 55.8999C165.9 55.8999 166.2 55.4999 167.1 52.8999L172.5 38.0999L172.2 37.3999H174.8L181 53.9999C181.6 55.5999 182.2 55.8999 183.7 55.8999V56.4999H175.5V55.8999H176.3C178 55.8999 178.6 55.6999 178.6 54.8999C178.6 54.3999 178.4 53.9999 178.3 53.6999L176.3 48.2999L170.1 48.1999ZM173.2 39.9999L170.7 46.8999H175.9L173.2 39.9999Z" fill="white"/>
<path d="M212.8 56.4999H205.5V55.8999C207.3 55.7999 207.7 55.2999 207.7 53.2999V40.5999C207.7 38.9999 207.1 38.4999 205.5 38.4999V37.8999H212.8V38.4999C210.9 38.4999 210.3 38.8999 210.3 40.8999V53.4999C210.3 55.2999 210.8 55.8999 212.8 55.8999V56.4999Z" fill="white"/>
<path d="M228.6 49.7999H228C227.8 47.6999 227.2 47.3999 226 47.3999H221V53.7999C221 55.1999 221.5 55.3999 222.6 55.3999H227.2C229.3 55.3999 229.9 54.5999 230.7 51.9999H231.2L230.7 56.3999H214.9V55.7999H215.7C218.1 55.7999 218.5 55.0999 218.5 53.2999V40.8999C218.5 39.1999 218.1 38.4999 216.1 38.4999H215.4V37.8999H229.7L229.9 41.9999H229.4C229 39.4999 228.3 38.8999 227.2 38.8999H220.9V46.1999H226.2C227.3 46.1999 227.8 45.6999 227.9 43.9999H228.5L228.6 49.7999Z" fill="white"/>
<path d="M234.8 51.9C235.4 54.5 237.5 56.1 239.8 56.1C241.8 56.1 243.9 54.9 243.9 52.6C243.9 48.3 234.3 47 234.3 41.8C234.3 39.3 236.6 37.5 239.6 37.5C242.1 37.5 242.6 38.2 243.7 38.2C243.9 38.2 244.1 38.1 244.2 37.9H244.7L245.2 41.7H244.7C243.9 39.6 242 38.2 239.9 38.2C237.9 38.2 236.6 39.3 236.6 41C236.6 45.2 246.2 46.4 246.2 51.9C246.2 54.8 243.6 57 240.1 57C238.5 57 236.4 56.2 236 56.2C235.7 56.2 235.5 56.3 235.4 56.5H234.9L234.3 52L234.8 51.9Z" fill="white"/>
<path d="M190.1 53.6999C190.1 55.4999 190.8 55.8999 192.5 55.8999H193.2V56.4999H184.8V55.8999H185.3C187.1 55.8999 187.7 55.3999 187.7 53.3999V40.8999C187.7 39.0999 187.2 38.4999 185.5 38.4999H184.8V37.8999C185.5 37.8999 187.3 37.7999 188.6 37.6999C189.8 37.5999 190.4 37.5999 192.4 37.5999C197.9 37.5999 200.4 39.8999 200.4 42.8999C200.4 45.0999 198.9 46.9999 196.4 47.6999C197.5 48.5999 198.4 49.3999 199.8 50.7999L202.2 53.1999C204.3 55.0999 205.4 56.3999 207.5 55.3999L208.1 56.2999C203.1 56.6999 201.5 55.7999 198.9 53.1999L196.9 51.1999C195.6 49.8999 194.5 48.9999 193.8 48.5999C193.1 48.5999 192.6 48.6999 191.8 48.6999C191.1 48.6999 190.8 48.6999 190.3 48.5999L190.1 53.6999ZM190.1 48.0999C190.8 48.1999 191.3 48.1999 191.9 48.1999C195.2 48.1999 197.4 46.7999 197.4 43.1999C197.4 40.3999 196.1 38.2999 191.6 38.2999C191 38.2999 190.6 38.2999 190.1 38.3999V48.0999Z" fill="white"/>
<path d="M111.4 18.0999V18.3999C110.2 18.3999 109.7 18.8999 109.7 20.0999V24.9999C109.7 27.2999 108.3 29.6999 104.3 29.6999C100.8 29.6999 99.1 27.6999 99.1 25.0999V19.7999C99.1 18.5999 98.8 18.4999 97.5 18.3999V18.0999H102.2V18.3999H102C101 18.3999 100.6 18.6999 100.6 19.6999V24.7999C100.6 27.2999 102 28.6999 104.7 28.6999C106.8 28.6999 108.8 27.7999 108.8 24.7999V20.5999C108.8 18.8999 108.5 18.4999 107 18.4999V18.1999L111.4 18.0999Z" fill="white"/>
<path d="M128.1 29.4999L118.7 19.5999V27.3999C118.7 28.6999 119 28.9999 120.5 28.9999V29.2999H116.3V28.9999H116.4C117.5 28.9999 117.9 28.5999 117.9 27.7999V18.8999C117.5 18.5999 117 18.4999 116.4 18.3999V18.0999H119.2L127.8 26.9999V19.7999C127.8 18.6999 127.5 18.4999 126 18.4999V18.1999H130.2V18.4999C128.8 18.4999 128.5 18.6999 128.5 19.3999V29.4999H128.1Z" fill="white"/>
<path d="M139.8 29.3999H135.4V28.9999C136.5 28.9999 136.8 28.6999 136.8 27.3999V19.6999C136.8 18.6999 136.5 18.3999 135.4 18.3999V18.0999H139.8V18.3999C138.7 18.3999 138.3 18.6999 138.3 19.8999V27.5999C138.3 28.6999 138.6 28.9999 139.8 28.9999V29.3999Z" fill="white"/>
<path d="M150.5 29.7L146.6 19.9C146.1 18.6999 145.9 18.5 144.8 18.5V18.2H149.8V18.5C148.1 18.5 147.7 18.8999 148.1 19.7999L151.4 27.9L154.3 20.4C154.5 19.9 154.6 19.4999 154.6 19.2999C154.6 18.7999 154.1 18.5 152.9 18.5V18.2H157.1V18.5C156.2 18.5 155.7 18.9 155.2 20.1L151.5 29.7999L150.5 29.7Z" fill="white"/>
<path d="M169.7 25.2999H169.4C169.3 23.9999 168.9 23.8999 168.2 23.8999H165.1V27.7999C165.1 28.5999 165.4 28.7999 166.1 28.7999H168.9C170.2 28.7999 170.6 28.2999 171 26.6999H171.3L171 29.3999H161.4V28.9999H161.9C163.3 28.9999 163.6 28.5999 163.6 27.4999V19.7999C163.6 18.7999 163.4 18.3999 162.2 18.3999H161.8V18.0999H170.5L170.6 20.5999H170.3C170.1 19.0999 169.6 18.6999 169 18.6999H165.2V23.1999H168.5C169.2 23.1999 169.5 22.8999 169.6 21.7999H169.9V25.2999H169.7Z" fill="white"/>
<path d="M179.8 27.7C179.8 28.8 180.2 29.1 181.2 29.1H181.6V29.4H176.5V29H176.8C177.9 29 178.2 28.7 178.2 27.5V19.8C178.2 18.7 177.9 18.4 176.8 18.4H176.4V18.1C176.8 18.1 177.9 18 178.7 18C179.4 18 179.8 18 181 18C184.4 18 185.9 19.4 185.9 21.2C185.9 22.6 185 23.7 183.5 24.1C184.2 24.6 184.7 25.1 185.6 26L187 27.4C188.1 28.5 189.2 29.1 190.6 29.2V29.5C187.4 29.6 186.6 29 185 27.3L183.8 26.1C183 25.3 182.4 24.8 181.9 24.5C181.4 24.5 181.2 24.5 180.7 24.5C180.3 24.5 180.1 24.5 179.8 24.5V27.7ZM179.8 24.2C180.2 24.2 180.5 24.2 180.9 24.2C182.9 24.2 184.2 23.3 184.2 21.2C184.2 19.5 183.4 18.2 180.6 18.2C180.3 18.2 180 18.2 179.7 18.2V24.2H179.8Z" fill="white"/>
<path d="M195.5 26.5999C195.9 28.1999 197.1 29.1999 198.6 29.1999C199.8 29.1999 201.1 28.4999 201.1 27.0999C201.1 24.4999 195.3 23.6999 195.3 20.4999C195.3 18.9999 196.7 17.8999 198.5 17.8999C200 17.8999 200.3 18.3999 201 18.3999C201.1 18.3999 201.2 18.3999 201.3 18.1999H201.6L201.9 20.4999H201.6C201.1 19.1999 199.9 18.3999 198.7 18.3999C197.5 18.3999 196.7 19.0999 196.7 20.0999C196.7 22.6999 202.5 23.3999 202.5 26.6999C202.5 28.4999 200.9 29.7999 198.8 29.7999C197.8 29.7999 196.5 29.2999 196.3 29.2999C196.1 29.2999 196 29.3999 195.9 29.4999H195.6L195.2 26.6999L195.5 26.5999Z" fill="white"/>
<path d="M212.6 29.3999H208.2V28.9999C209.3 28.9999 209.6 28.6999 209.6 27.3999V19.6999C209.6 18.6999 209.3 18.3999 208.2 18.3999V18.0999H212.6V18.3999C211.4 18.3999 211.1 18.6999 211.1 19.8999V27.5999C211.1 28.6999 211.4 28.9999 212.6 28.9999V29.3999Z" fill="white"/>
<path d="M224.4 27.7C224.4 28.7 224.7 29 225.8 29H226.5V29.2999H220.8V29H221.5C222.6 29 222.9 28.7 222.9 27.7V18.7H219.7C219 18.7 218.6 19.1 218.4 20.7H218.1L218.4 17.7999H218.7C218.7 17.8999 218.8 18 218.9 18C219 18 219.1 18 219.3 18H228C228.2 18 228.5 18 228.6 17.7H228.9L229.2 20.6H228.9C228.6 19 228.3 18.6 227.6 18.6H224.4V27.7Z" fill="white"/>
<path d="M243.2 19.7C243.8 18.7 243.4 18.4 242.3 18.4V18.1H246.4V18.4C245.2 18.5 244.6 19 244.1 19.8L241.1 24.9V27.6C241.1 28.6 241.4 28.9 242.5 28.9H242.7V29.2H237.7V29H238C239.1 29 239.4 28.6 239.4 27.7V25.1L236.2 20C235.3 18.6 234.9 18.3 233.7 18.3V18H238.5V18.3C237.1 18.3 237 18.6 237.5 19.5L240.4 24L243.2 19.7Z" fill="white"/>
<path d="M15.0996 37.2001C15.0996 51.8 26.8996 63.6 41.4996 63.6C56.0996 63.6 67.8996 51.8 67.8996 37.2001C67.8996 22.6 55.9996 10.8 41.3996 10.8C26.7996 10.8 15.0996 22.6 15.0996 37.2001Z" fill="white"/>
<path d="M67.7996 36.6001C67.7996 36.7001 67.2996 37.1001 66.7996 37.4001C66.0996 37.8001 65.1996 38.1001 63.9996 38.4001C62.7996 38.7001 61.2996 39.0001 59.5996 39.3001C57.7996 39.6001 55.9996 39.8001 53.9996 40.0001C51.3996 40.2001 49.7996 40.3001 47.7996 40.4001C45.5996 40.5001 43.3996 40.5001 41.0996 40.5001C41.0996 40.8001 41.0996 41.1001 41.0996 41.4001C41.0996 43.5001 41.0996 45.4001 41.0996 47.3001C41.0996 57.4001 41.1996 57.4001 41.4996 63.6001C56.0996 63.6001 67.8996 51.8001 67.8996 37.2001C67.7996 37.2001 67.7996 36.8001 67.7996 36.6001Z" fill="#FFD520"/>
<path d="M41 41.3999C41 43.4999 41 45.3999 41 47.2999C45.2 51.2999 45.2 51.2999 47 53.0999C47.5 49.7999 47.7 45.7999 47.7 41.2999C47.7 40.9999 47.7 40.6999 47.7 40.3999C45 40.4999 43.3 40.4999 41 40.4999C41 40.7999 41 41.0999 41 41.3999Z" fill="black"/>
<path d="M50.7 57.6001C49.8 56.1001 48.9 55.1001 47 53.1001C46.1 59.5001 44.5 63.5001 42.5 63.5001C42.7 63.5001 42.9 63.5001 43.1 63.5001C43.3 63.5001 43.6 63.5001 43.8 63.5001C46.6 63.2001 48.9 61.1001 50.7 57.6001Z" fill="black"/>
<path d="M53.7002 46.8C53.7002 46.8 52.2002 54.7 50.7002 57.6C51.5002 59.2 51.6002 59.8001 51.2002 60.9001C53.8002 59.0001 55.9002 56.0001 57.3002 52.4001C56.4002 50.4001 55.8002 49.4 53.7002 46.8Z" fill="black"/>
<path d="M46.1 63.1C46.7 63 46.6 63 47.7 62.8L48.3 62.6C50.2 62 50.6 61.7 51.2 60.8C49.5 62.1 47.6 62.9001 45.5 63.2001L46.1 63.1Z" fill="black"/>
<path d="M57.7998 56.7C61.5998 52.4 63.8998 46.3 63.8998 39.4C63.8998 39.1 63.8998 38.8 63.8998 38.5C62.6998 38.8 61.1998 39.1 59.4998 39.4C59.4998 39.7 59.4998 40 59.4998 40.3C59.4998 44.8 58.6998 48.9 57.2998 52.4C58.1998 54.3 58.1998 55.2 57.7998 56.7Z" fill="black"/>
<path d="M53.9998 40C51.3998 40.2 49.7998 40.3 47.7998 40.4C51.3998 44.2 52.1998 45 53.6998 46.8C53.8998 44.9 53.9998 43 53.9998 40.9C53.9998 40.6 53.9998 40.3 53.9998 40Z" fill="black"/>
<path d="M35.6997 12.2C37.1997 11.6 38.5997 11 41.3997 10.8C39.3997 11 37.3997 11.6 35.6997 12.2Z" fill="black"/>
<path d="M59.1 39.4001C57.7 39.2001 56.6 36.9 57.2 34.5C55.3 35.8 53.1 33.1 53.4 30.6C53.6 29.3 54.4 28.1 56 28.6C55.4 26.5001 54.6 24.4 53.7 22.6C52.3 22.8001 50.8 22.9 49.3 23C50.7 25.1 49.3 27.1 47.4 26.8C46 26.6 44.7 25.1 45 23.3C43.8 24.1 41.5 23.8 41.2 21.3C41.1 26.6 41 33.4 41 40.5C48 40.6 56.2 39.8 59.5 39.3C59.4 39.4 59.2 39.4001 59.1 39.4001Z" fill="#E03A3E"/>
<path d="M24.3998 44.6001C26.3998 43.8001 28.7998 47.2001 27.9998 49.5001C27.5998 50.5001 26.5998 50.8001 25.4998 50.2001C26.0998 52.2001 26.7998 54.0001 27.6998 55.6001C29.0998 55.8001 30.5998 56.0001 32.2998 56.1001C30.8998 54.4001 31.9998 53.0001 33.7998 53.1001C35.3998 53.2001 37.3998 54.5001 36.9998 56.3001C38.3998 55.7001 40.7998 56.2001 41.0998 58.0001C40.9998 54.1001 40.9998 48.2001 40.9998 41.4001C40.9998 41.1001 40.9998 40.8001 40.9998 40.5001C38.7998 40.5001 36.4998 40.4001 34.2998 40.3001C29.4998 40.1001 26.2998 39.8001 22.2998 39.1001C24.3998 39.9001 24.8998 43.0001 24.3998 44.6001Z" fill="#E03A3E"/>
<path d="M53.8999 20.4C54.1999 20.4 54.3999 20.2999 54.6999 20.2999C56.1999 19.9999 59.5999 19.2 59.5999 18.2C59.5999 18.2 60.8999 19.5 61.8999 21.4C61.9999 21.6 62.0999 21.8 62.1999 22.1C62.2999 22.4 62.3999 22.8 62.3999 23C62.3999 23.6 61.9999 23.5999 61.5999 23.4H61.4999C60.1999 22.8 59.6999 21.5 59.3999 21C58.6999 21.2 57.5999 21.6999 56.5999 21.9C56.4999 21.9 56.2999 22 56.1999 22C57.2999 23.8 58.3999 26 59.0999 28.2C60.3999 26.8 62.4999 29.4 62.5999 31.7999C62.6999 33.1999 61.9999 34.4999 60.6999 34.0999C61.7999 35.9999 61.3999 38.9 59.3999 39.5C59.1999 33 58.0999 27.2999 53.8999 20.4Z" fill="#E03A3E"/>
<path d="M53.8997 20.3999C50.4997 15.2999 47.8997 13.3999 44.4997 12.0999C43.7997 11.7999 41.4997 10.8999 41.3997 10.8999C41.9997 11.7999 43.1997 12.2999 43.4997 12.3999C43.3997 12.6999 43.4997 13.3999 44.5997 14.1999C44.7997 14.2999 44.8997 14.3999 45.0997 14.4999C46.7997 15.3999 47.1997 14.6999 47.2997 14.3999C47.7997 14.7999 48.7997 15.5999 49.9997 16.8999C50.5997 17.6999 51.2997 18.3999 51.6997 18.9999C50.5997 19.0999 49.1997 19.2999 47.8997 19.3999C47.7997 17.6999 46.5997 16.8999 45.7997 16.5999C44.0997 15.9999 43.5997 17.8999 44.2997 19.2999C42.9997 18.5999 41.3997 19.1999 41.1997 21.2999C46.2997 21.1999 49.8997 20.8999 53.8997 20.3999Z" fill="#E03A3E"/>
<path d="M54.1998 15.5999C54.1998 15.5999 54.1998 15.4999 54.1998 15.3999C54.1998 15.2999 54.2998 15.2999 54.2998 15.2999C54.2998 15.2999 54.2998 15.1999 54.3998 15.1999C54.6998 15.0999 55.4998 14.9999 57.6998 16.4999C53.0998 12.8999 48.1998 11.3999 43.9998 10.9999C43.3998 10.8999 42.2998 10.8999 42.2998 10.8999C43.5998 10.9999 44.4998 11.3999 44.6998 11.3999C44.8998 11.4999 44.9998 11.4999 45.0998 11.5999C45.3998 11.5999 45.6998 11.6999 45.9998 11.7999C46.3998 11.8999 47.0998 12.1999 47.6998 12.4999C48.2998 12.7999 49.1998 13.3999 49.1998 13.7999C49.0998 13.8999 48.9998 13.8999 48.5998 13.7999C50.1998 14.8999 52.3998 16.9999 53.6998 18.5999C54.5998 18.3999 55.9998 18.1999 56.5998 17.9999C56.6998 17.9999 54.6998 16.4999 54.1998 15.5999Z" fill="#E03A3E"/>
<path d="M27.3998 57.0999C25.0998 56.6999 23.7998 56.3999 22.9998 55.8999C22.8998 55.7999 22.7998 55.7999 22.7998 55.7999C22.7998 55.7999 21.4998 54.4999 20.3998 53.0999C19.5998 51.9999 18.8998 50.8999 18.7998 50.7999C18.7998 50.7999 18.9998 50.7999 19.0998 50.7999C20.2998 51.1999 22.0998 54.3999 22.1998 54.4999C22.8998 54.7999 23.8998 54.9999 24.9998 55.2999C23.8998 53.6999 22.9998 51.7999 22.2998 49.7999C20.6998 50.5999 18.5998 46.2999 19.1998 44.4999C19.2998 44.0999 19.7998 43.2999 20.8998 44.1999C20.0998 42.2999 20.2998 39.3999 22.2998 39.3999C22.3998 45.5999 23.2998 51.1999 27.3998 57.0999Z" fill="#E03A3E"/>
<path d="M41.1 58.4C40.9 59.3 39.6 60.2 37.8 59.5C38.6 60.6 37.9 61.5999 36.4 61.2999C35.2 61.0999 33.9 60.2 33.8 59.2C32.4 59.1 31.1 58.9999 29.9 58.7999C31 60.0999 32.2 61.1 33.6 61.9C33.8 61.8 34 61.8999 34.8 62.0999C35.8 62.4999 36.8 62.8999 37.8 63.2999H37.6C36.8 63.1999 36.6 63.0999 36.2 63.0999C34.3 62.6999 30.9 61.6 27.5 57.2C31.6 57.8 35.6 58.0999 41.3 58.0999C41.2 58.0999 41.2 58.3 41.1 58.4Z" fill="#E03A3E"/>
<path d="M41.3996 10.8C27.2996 10.8 15.3996 22.3001 15.0996 36.7001C15.0996 36.7001 15.1996 37.0001 15.7996 37.4001C16.3996 37.7001 17.1996 38.1001 18.2996 38.4001C19.5996 38.7001 20.9996 39 22.3996 39.3C26.3996 40 29.5996 40.3 34.3996 40.5C36.5996 40.6 38.8996 40.7001 41.0996 40.7001C41.0996 39.4001 41.0996 31.7 41.0996 24.3C41.0996 23.3 41.0996 22.3 41.0996 21.3C41.1996 16.4 41.2996 11.5 41.3996 10.8Z" fill="#FFD520"/>
<path d="M53.9996 60.4C52.4996 61.2 52.1996 61.2999 50.1996 62.0999C49.5996 62.2999 49.0996 62.4999 48.5996 62.5999C52.1996 61.5999 56.9996 57.7 57.8996 56.7C57.4996 57.7 57.0996 58.2999 56.0996 59.0999C55.7996 59.3999 54.4996 60.1 53.9996 60.4Z" fill="black"/>
<path d="M18.1997 38.4001C17.0997 38.1001 16.2997 37.8001 15.6997 37.4001C15.9997 27.9001 21.2997 19.4 28.9997 14.8C27.1997 16.4 26.3997 17.4 25.3997 19.6C21.1997 24.5 18.3997 31.2001 18.1997 38.4001Z" fill="black"/>
<path d="M29.0996 14.6999C30.9996 13.2999 32.0996 12.2999 35.1996 11.5999C37.3996 11.0999 39.1996 10.8999 41.3996 10.8999C36.8996 10.9999 32.7996 12.4999 29.0996 14.6999Z" fill="black"/>
<path d="M27.6998 39.9999C25.7998 39.7999 23.8998 39.5999 22.2998 39.2999C22.3998 34.4999 23.3998 29.8999 25.0998 25.8999C25.7998 28.5999 26.2998 29.9999 28.1998 33.1999C27.8998 35.2999 27.6998 37.5999 27.6998 39.9999Z" fill="black"/>
<path d="M41.0996 21.1999C41.0996 24.0999 41.0996 27.0999 40.9996 29.3999C40.9996 31.6999 40.9996 33.2999 40.9996 33.6999C38.3996 30.9999 36.9996 29.4999 35.0996 27.0999C36.3996 18.8999 38.6996 12.3999 41.2996 10.8999C41.2996 11.5999 41.1996 16.2999 41.0996 21.1999Z" fill="black"/>
<path d="M31.8998 20.8999C30.1998 24.3999 28.9998 28.5999 28.2998 33.0999C29.8998 35.4999 30.8998 36.8999 34.0998 40.3999C34.0998 35.6999 34.4998 31.0999 35.1998 26.9999C33.1998 24.2999 32.5998 23.0999 31.8998 20.8999Z" fill="black"/>
<path d="M66.7999 37.5C66.7999 37.8 66.7999 38.1 66.7999 38.4C66.7999 47.7 62.2999 55.5 55.0999 59.7999L54.8999 59.9C58.1999 57.8 62.4999 54.3999 65.1999 48.5999C68.0999 42.8999 67.7999 36.7 67.7999 36.7C67.5999 36.9 67.1999 37.2 66.7999 37.5Z" fill="black"/>
<path d="M35.6998 12.2C31.8998 13.7 28.3998 16.3 25.5998 19.5C24.7998 21.9 24.7998 23.2 25.1998 25.8C26.8998 21.8 29.2998 18.3 32.0998 15.7C32.9998 14.3 33.4998 13.3 35.6998 12.2Z" fill="black"/>
<path d="M31.9 20.9C31.4 18.7 31.4 17.7 32.1 15.8C34.8 13.3 38 11.4 41.4 10.8C37.7 11.8 34.3 15.7 31.9 20.9Z" fill="white"/>
<path d="M9.6998 17.7L9.7998 17.7999C9.4998 18.2999 9.6998 18.6 10.1998 18.9L12.2998 20C13.2998 20.5 13.9998 21.6 13.1998 23.4C12.3998 24.9 11.1998 25.3 10.0998 24.7L7.7998 23.5C7.2998 23.3 7.0998 23.4 6.8998 23.9L6.7998 23.7999L7.7998 21.7999L7.8998 21.9V22C7.6998 22.4 7.6998 22.7 8.1998 22.9L10.3998 24C11.4998 24.5 12.3998 24.2 12.9998 23C13.3998 22.1 13.4998 20.9999 12.1998 20.2999L10.2998 19.4C9.4998 19 9.2998 19.1 8.9998 19.7L8.8998 19.6L9.6998 17.7Z" fill="white"/>
<path d="M18.7999 15.0001L12.1999 15.4001L15.0999 17.9001C15.5999 18.3001 15.7999 18.3001 16.2999 17.7001L16.3999 17.8001L15.0999 19.4001L14.9999 19.3001C15.3999 18.9001 15.2999 18.6001 14.9999 18.4001L11.6999 15.6001C11.4999 15.7001 11.2999 15.8001 10.9999 16.0001L10.8999 15.9001L11.7999 14.8001L17.7999 14.4001L15.0999 12.1001C14.6999 11.8001 14.4999 11.8001 13.9999 12.3001L13.8999 12.2001L15.1999 10.6001L15.2999 10.7001C14.8999 11.2001 14.8999 11.4001 15.0999 11.6001L18.8999 14.8001L18.7999 15.0001Z" fill="white"/>
<path d="M22.0999 12.2L20.3999 13.6L20.2999 13.5C20.6999 13.1 20.6999 12.9 20.2999 12.5L17.8999 9.6C17.5999 9.2 17.3999 9.2 16.9999 9.5L16.8999 9.4L18.5999 8H18.6999C18.2999 8.4 18.1999 8.6 18.5999 9L20.9999 11.9C21.2999 12.3 21.5999 12.3 21.9999 12L22.0999 12.2Z" fill="white"/>
<path d="M25.2996 10.1L21.2996 6.99995C20.7996 6.59995 20.6996 6.59995 20.1996 6.79995L20.0996 6.69995L22.1996 5.49995L22.2996 5.59995C21.5996 5.99995 21.4996 6.29995 21.8996 6.59995L25.2996 9.19995L24.6996 5.29995C24.6996 4.99995 24.5996 4.89995 24.5996 4.69995C24.4996 4.49995 24.1996 4.49995 23.6996 4.79995L23.5996 4.69995L25.3996 3.69995L25.4996 3.79995C25.0996 3.99995 24.9996 4.29995 25.0996 4.89995L25.8996 9.89995L25.2996 10.1Z" fill="white"/>
<path d="M31.8996 4.8999H31.6996C31.3996 4.2999 31.1996 4.2999 30.8996 4.3999L29.4996 4.9999L30.0996 6.7999C30.1996 7.1999 30.3996 7.1999 30.6996 7.0999L31.9996 6.5999C32.5996 6.3999 32.6996 6.0999 32.5996 5.2999H32.6996L32.9996 6.5999L28.4996 8.0999V7.8999L28.6996 7.7999C29.3996 7.5999 29.3996 7.2999 29.2996 6.7999L28.0996 3.2999C27.9996 2.8999 27.7996 2.7999 27.1996 2.9999H27.0996V2.7999L31.0996 1.3999L31.5996 2.4999H31.4996C30.9996 1.9999 30.6996 1.8999 30.3996 1.9999L28.5996 2.5999L29.2996 4.6999L30.7996 4.1999C31.0996 4.0999 31.1996 3.8999 31.0996 3.3999H31.2996L31.8996 4.8999Z" fill="white"/>
<path d="M35.1996 0.600013C35.3996 0.600013 35.4996 0.600013 35.5996 0.500013C36.9996 0.400013 37.4996 1.00001 37.5996 1.80001C37.6996 2.90001 37.0996 3.30001 36.1996 3.50001C35.9996 3.50001 35.8996 3.50001 35.6996 3.50001L35.1996 0.600013ZM35.5996 3.70001C35.6996 3.70001 35.8996 3.70001 35.9996 3.70001C36.1996 3.70001 36.3996 3.70001 36.5996 3.60001C36.7996 3.70001 37.1996 3.90001 37.5996 4.30001L38.2996 4.80001C39.1996 5.50001 39.5996 5.80001 41.0996 5.50001V5.30001C40.3996 5.30001 39.7996 5.10001 39.2996 4.60001L38.4996 4.00001C37.9996 3.60001 37.6996 3.40001 37.3996 3.20001C38.0996 2.90001 38.4996 2.30001 38.3996 1.60001C38.2996 0.700013 37.4996 0.100013 35.7996 0.300013C35.1996 0.400013 35.0996 0.400013 34.6996 0.500013C34.2996 0.600013 33.7996 0.700013 33.5996 0.700013V0.900013H33.7996C34.2996 0.800013 34.4996 1.00001 34.4996 1.50001L34.8996 5.20001C35.0996 5.80001 34.9996 6.00001 34.3996 6.00001H34.2996V6.20001L36.7996 5.90001V5.70001H36.5996C36.0996 5.80001 35.8996 5.70001 35.7996 5.10001L35.5996 3.70001Z" fill="white"/>
<path d="M42.3999 4.2C42.4999 5 43.0999 5.5 43.7999 5.6C44.3999 5.6 45.0999 5.4 45.0999 4.6C45.1999 3.3 42.3999 2.7 42.4999 1.2C42.5999 0.5 43.2999 0 44.1999 0C44.8999 0.1 45.0999 0.3 45.3999 0.3C45.4999 0.3 45.4999 0.3 45.5999 0.2H45.6999L45.7999 1.3H45.6999C45.4999 0.6 44.9999 0.2 44.3999 0.1C43.7999 0.1 43.3999 0.4 43.2999 0.9C43.1999 2.2 45.9999 2.7 45.8999 4.3C45.7999 5.2 44.9999 5.7 43.9999 5.7C43.4999 5.7 42.8999 5.4 42.7999 5.4C42.6999 5.4 42.6999 5.4 42.5999 5.5H42.4999L42.3999 4.1V4.2Z" fill="white"/>
<path d="M49.2997 6.5L47.1997 6V5.8C47.6997 5.9 47.8997 5.8 47.9997 5.2L48.7997 1.5C48.8997 1 48.7997 0.9 48.2997 0.7V0.5L50.3997 1V1.2C49.8997 1.1 49.5997 1.2 49.4997 1.7L48.6997 5.4C48.5997 5.9 48.6997 6.1 49.2997 6.2V6.5Z" fill="white"/>
<path d="M53.6997 7.19995C53.4997 7.59995 53.5997 7.89995 54.0997 8.09995L54.3997 8.19995L54.2997 8.39995L51.6997 7.39995L51.7997 7.29995L52.0997 7.39995C52.5997 7.59995 52.7997 7.49995 52.9997 7.09995L54.5997 2.99995L53.1997 2.39995C52.8997 2.29995 52.5997 2.39995 52.1997 3.09995L52.0997 2.99995L52.7997 1.69995L52.9997 1.79995V1.89995L53.0997 1.99995L57.0997 3.59995C57.1997 3.59995 57.2997 3.69995 57.3997 3.59995L57.5997 3.69995L57.1997 5.09995L56.9997 4.79995C57.1997 3.99995 57.0997 3.79995 56.7997 3.59995L55.3997 2.99995L53.6997 7.19995Z" fill="white"/>
<path d="M62.8 7.7C63.3 7.5 63.2 7.2 62.8 6.9L62.9 6.8L64.6 7.9L64.5 8C64 7.7 63.6 7.8 63.2 8L60.6 9.3L59.9 10.4C59.6 10.8 59.7 11 60.1 11.3L60.2 11.4L60 11.5L58 10.1V10L58.1 10.1C58.6 10.4 58.8 10.3 59 10L59.7 9L59.9 6C59.9 5.2 59.8 5 59.3 4.6L59.4 4.5L61.4 5.8L61.3 6C60.7 5.6 60.6 5.7 60.6 6.2V8.8L62.8 7.7Z" fill="white"/>
<path d="M70.0998 18.2999C69.0998 19.0999 67.6998 19.2999 66.7998 18.0999C65.8998 16.9999 66.1998 15.3999 67.4998 14.2999C68.3998 13.6999 69.8998 13.2999 70.7998 14.4999C71.6998 15.7999 71.3998 17.2999 70.0998 18.2999ZM70.7998 18.7999C72.0998 17.7999 72.0998 15.9999 71.0998 14.6999C69.8998 13.1999 68.0998 12.8999 66.6998 13.8999C65.3998 14.8999 65.3998 16.6999 66.3998 18.0999C67.4998 19.4999 69.3998 19.8999 70.7998 18.7999Z" fill="white"/>
<path d="M72.6996 24.3999L72.5996 24.2999C73.0996 24.0999 73.0996 23.7999 72.8996 23.3999L72.1996 21.8999L70.3996 22.6999C69.9996 22.8999 69.7996 23.0999 70.0996 23.6999L69.9996 23.7999L69.0996 21.8999L69.1996 21.7999C69.4996 22.2999 69.5996 22.2999 70.2996 21.9999L73.3996 20.4999C73.8996 20.2999 74.0996 20.0999 73.8996 19.4999L73.9996 19.3999L75.6996 22.9999L74.7996 23.4999L74.6996 23.3999C75.1996 23.1999 75.2996 22.8999 74.9996 22.3999L74.2996 20.8999L72.3996 21.7999L73.1996 23.3999C73.2996 23.6999 73.5996 23.7999 73.8996 23.5999L73.9996 23.6999L72.6996 24.3999Z" fill="white"/>
<path d="M10.5999 59.0999L13.7999 53.2L9.4999 55.9C8.9999 56.2 9.1999 56.5999 9.4999 57.0999L9.2999 57.2L7.8999 55.2999L7.9999 55.2C8.4999 55.9 8.6999 55.7999 9.5999 55.2999L13.2999 52.9C13.8999 52.5 14.0999 52.3999 13.6999 51.7999L13.8999 51.7L14.8999 53.0999L11.8999 58.7L18.0999 57.5L19.0999 58.7999L18.8999 58.9C18.4999 58.5 18.3999 58.2999 18.0999 58.5999L14.1999 61.9C13.3999 62.6 13.3999 62.5999 13.8999 63.2999L13.6999 63.4L11.9999 61.0999L12.1999 61C12.4999 61.4 12.8999 61.8 13.3999 61.4L17.2999 58.0999L10.7999 59.4L10.5999 59.0999Z" fill="white"/>
<path d="M21.8 65.1999L20.2 63.9999L22.5 62.3999L21.8 65.1999ZM21.6 65.7999L21 67.8999C21 67.9999 20.9 68.1999 20.8 68.2999C20.6 68.5999 20.4 68.4999 19.9 68.0999L19.7 67.8999L19.6 68.0999L22.1 69.8999L22.2 69.6999C21.7 69.3999 21.6 69.0999 21.8 68.4999L23.6 61.9999L22.8 61.3999L22.7 61.6999L17.7 64.9999C16.8 65.5999 16.6 65.5999 16.1 65.1999L16 65.4999L18.1 66.9999L18.2 66.7999L18.1 66.6999C17.6 66.2999 17.4 66.0999 17.6 65.7999C17.7 65.6999 18 65.4999 18.2 65.3999L19.8 64.3999L21.6 65.7999Z" fill="white"/>
<path d="M28.8996 65.6C29.0996 65.6 29.1996 65.7 29.3996 65.8C30.9996 66.4 31.1996 67.3 30.8996 68.3C30.3996 69.6 29.4996 69.8 28.2996 69.4C28.0996 69.3 27.8996 69.3 27.5996 69.1L28.8996 65.6ZM27.5996 69.3C27.7996 69.4 27.8996 69.4 28.0996 69.5C28.3996 69.6 28.5996 69.6 28.7996 69.7C28.9996 70 29.2996 70.4 29.5996 71L30.0996 72C30.6996 73.3 31.0996 73.9 32.8996 74.4L32.9996 74.2C32.1996 73.9 31.6996 73.2 31.2996 72.4L30.7996 71.2C30.4996 70.5 30.2996 70.1 29.9996 69.7C30.9996 69.7 31.7996 69.3 31.9996 68.5C32.3996 67.4 31.7996 66.3 29.7996 65.6C29.0996 65.4 28.8996 65.3 28.3996 65.2C27.8996 65.1 27.2996 64.9 26.9996 64.8V65L27.1996 65.1C27.7996 65.3 27.8996 65.6 27.6996 66.2L26.0996 70.7C25.7996 71.4 25.5996 71.5 24.8996 71.3L24.6996 71.2L24.5996 71.4L27.5996 72.5L27.6996 72.3L27.4996 72.2C26.8996 72 26.6996 71.7 26.8996 71.1L27.5996 69.3Z" fill="white"/>
<path d="M40.4998 69.1C40.8998 68.5 40.6998 68.3 39.9998 68.2V68L42.5998 68.2V68.4C41.7998 68.4 41.4998 68.7 41.0998 69.2L38.9998 72.2L38.8998 73.9C38.8998 74.5 38.9998 74.8 39.6998 74.8H39.7998V75L36.6998 74.7V74.5H36.8998C37.5998 74.6 37.7998 74.3 37.8998 73.8L37.9998 72.2L36.2998 68.9C35.7998 68 35.5998 67.8 34.7998 67.7V67.5L37.7998 67.8V68C36.8998 67.9 36.7998 68.1 37.0998 68.7L38.6998 71.6L40.4998 69.1Z" fill="white"/>
<path d="M49.8999 74.2L44.8999 75V74.8L45.2999 74.7C45.7999 74.6 45.9999 74.4 45.8999 73.8L45.0999 68.8C44.9999 68.2 44.7999 68 44.0999 68.1H43.8999V67.9L47.1999 67.3V67.5L46.7999 67.6C46.0999 67.7 45.8999 67.8 45.9999 68.5L46.8999 73.7C46.8999 74 47.0999 74.1 47.3999 74L48.9999 73.7C49.6999 73.6 49.7999 73.3 50.3999 72.2H50.5999L49.8999 74.2Z" fill="white"/>
<path d="M55.3 68.5L53.5 69.3L53.4 66.5L55.3 68.5ZM55.7 68.9L57.2 70.5C57.3 70.6 57.4 70.7 57.5 70.9C57.6 71.2 57.4 71.3 56.8 71.6L56.5 71.7L56.6 71.9L59.5 70.7L59.4 70.5C58.9 70.7 58.6 70.7 58.2 70.2L53.6 65.3L52.7 65.7L52.9 65.9L53.2 71.9C53.2 73 53.2 73.1 52.5 73.4L52.6 73.6L55 72.6L54.9 72.4L54.7 72.5C54.1 72.7 53.8 72.7 53.7 72.5C53.6 72.4 53.6 72 53.6 71.8L53.5 69.9L55.7 68.9Z" fill="white"/>
<path d="M67.9998 64.5001L59.5998 63.5001L62.6998 67.3001C63.1998 67.9001 63.4998 67.9001 64.1998 67.3001L64.2998 67.5001L62.2998 69.2001L62.1998 69.0001C62.6998 68.6001 62.7998 68.2001 62.3998 67.8001L58.7998 63.5001C58.4998 63.5001 58.1998 63.6001 57.8998 63.9001L57.7998 63.7001L59.1998 62.6001L66.8998 63.5001L63.9998 59.9001C63.5998 59.4001 63.2998 59.4001 62.5998 60.0001L62.4998 59.8001L64.4998 58.1001L64.5998 58.3001C63.8998 58.8001 63.8998 59.1001 64.1998 59.4001L68.1998 64.3001L67.9998 64.5001Z" fill="white"/>
<path d="M66.2996 55.7C66.3996 55.6 66.4996 55.3 66.7996 54.9C67.6996 53.6 68.3996 53.1 69.1996 53C70.0996 52.8 70.9996 53.1 71.6996 53.6C72.6996 54.2 73.0996 55.1 73.1996 55.7C73.3996 56.7 73.1996 57.3 72.3996 58.6C71.8996 59.4 71.7996 59.3 71.3996 59L66.2996 55.7ZM70.6996 59.7C71.2996 60.1 71.1996 60.4 70.8996 60.9L70.7996 61.1L70.9996 61.2L72.9996 58.2C74.5996 55.8 73.5996 53.6 72.0996 52.6C70.4996 51.6 68.4996 51.9 66.8996 54.4C66.5996 54.9 66.1996 55.5 65.8996 56C65.5996 56.5 65.2996 57 65.0996 57.4L65.2996 57.5L65.3996 57.3C65.7996 56.7 65.9996 56.7 66.5996 57.1L70.6996 59.7Z" fill="white"/>
<path d="M5.0998 35V39.9C5.0998 40.1 5.0998 40.2 5.3998 40.2H5.8998V40.3H3.6998V40.2H4.1998C4.4998 40.2 4.4998 40.1 4.4998 39.9V35.7C4.1998 35.9 3.7998 36.2 3.3998 36.4L3.2998 36.3C3.7998 36 4.4998 35.3 4.6998 35.1L5.0998 35Z" fill="white"/>
<path d="M9.89971 39.1C9.89971 39.8 9.39971 40.3 8.79971 40.3C8.19971 40.3 7.69971 39.8 7.69971 39.1C7.69971 38.6 7.99971 38.1 8.59971 37.8C9.49971 38.2 9.89971 38.6 9.89971 39.1ZM10.2997 36.2C10.2997 35.5 9.59971 35 8.79971 35C7.99971 35 7.29971 35.6 7.29971 36.4C7.29971 37 7.69971 37.4 8.39971 37.7C7.59971 38 7.19971 38.5 7.19971 39.1C7.19971 39.9 7.89971 40.5 8.79971 40.5C9.69971 40.5 10.4997 39.8 10.4997 39C10.4997 38.4 10.0997 37.9 9.19971 37.5C9.89971 37.1 10.2997 36.7 10.2997 36.2ZM9.79971 36.2C9.79971 36.7 9.59971 37.1 9.09971 37.4C7.99971 36.9 7.79971 36.6 7.79971 36.1C7.79971 35.6 8.19971 35.2 8.79971 35.2C9.29971 35.1 9.79971 35.6 9.79971 36.2Z" fill="white"/>
<path d="M72.5 35.6H74.5C74.6 35.6 74.7 35.6 74.7 35.5H74.9L74.8 36.1H72.7L72.6 37.6C72.9 37.5 73.2 37.4 73.5 37.4C74.4 37.4 75.2 38.2 75.2 39.1C75.2 40.1 74.4 40.9 73.2 40.9C72.5 40.9 72 40.7 72 40.4C72 40.3 72.1 40.1 72.3 40.1C72.8 40.1 72.9 40.7 73.4 40.7C74 40.7 74.6 40.1 74.6 39.3C74.6 38.5 74.1 38 73.3 38C73 38 72.7 38.1 72.4 38.3L72.3 38.2L72.5 35.6Z" fill="white"/>
<path d="M78.8997 39.3C78.8997 40.3 78.4997 40.8 77.8997 40.8C77.3997 40.8 76.7997 40.3 76.7997 38.9C76.7997 38.6 76.7997 38.5 76.7997 38.4C77.2997 38 77.6997 37.9 77.8997 37.9C78.4997 37.9 78.8997 38.4 78.8997 39.3ZM78.9997 35.5C77.1997 36 76.1997 37.2 76.1997 38.8C76.1997 40.1 76.8997 41 77.9997 41C78.8997 41 79.5997 40.2 79.5997 39.3C79.5997 38.4 78.8997 37.8 78.0997 37.8C77.6997 37.8 77.3997 37.9 76.8997 38.3C77.0997 36.9 77.7997 36.1 78.9997 35.5Z" fill="white"/>
<path d="M77.2997 51.1C77.2997 52.1 76.4997 52.9001 75.4997 52.9001C74.4997 52.9001 73.6997 52.1 73.6997 51.1C73.6997 50.1 74.4997 49.3 75.4997 49.3C76.3997 49.3 77.2997 50.1 77.2997 51.1ZM73.7997 51.2001C73.7997 52.1001 74.5997 52.8 75.4997 52.8C76.3997 52.8 77.0997 52 77.0997 51.1C77.0997 50.2 76.2997 49.5 75.3997 49.5C74.4997 49.5 73.7997 50.3001 73.7997 51.2001ZM75.3997 50C75.8997 50 76.1997 50.2 76.1997 50.6C76.1997 50.9 75.9997 51.1001 75.5997 51.2001L76.0997 52C76.1997 52.2 76.2997 52.2001 76.3997 52.2001V52.3H75.8997L75.0997 51.3H74.8997V52C74.8997 52.1 74.9997 52.2001 75.1997 52.2001V52.3H74.2997V52.2001C74.4997 52.2001 74.5997 52.1 74.5997 52V50.4001C74.5997 50.3001 74.5997 50.2001 74.3997 50.2001V50.1L75.3997 50ZM75.1997 51.1C75.4997 51.1 75.7997 51 75.7997 50.6C75.7997 50.3 75.5997 50.1 75.2997 50.1C75.1997 50.1 75.1997 50.1 75.0997 50.1L75.1997 51.1Z" fill="white"/>
</g>
<defs>
<clipPath id="clip0_4468_426">
<rect width="250" height="75" fill="white"/>
</clipPath>
</defs>
</svg>
